<svg xmlns:mydata="http://www.w3.org/2000/svg" mydata:contrastcolor="D5CB9F"
    mydata:template="Default" mydata:presentation="2.5" mydata:layouttype="undefined"
    mydata:specialfontid="undefined" mydata:id1="186" mydata:id2="185" mydata:companyname="help"
    mydata:companytagline="" version="1.1" xmlns="http://www.w3.org/2000/svg"
    xmlns:xlink="http://www.w3.org/1999/xlink"
    viewBox="70.23071007233699 185.4030112527269 409.5385798553261 99.19397749454612"
    class="watermark-logo">
    <g fill="#3A173C" fill-rule="none" stroke="none" stroke-width="1" stroke-linecap="butt"
        stroke-linejoin="miter" stroke-miterlimit="10" stroke-dasharray="" stroke-dashoffset="0"
        font-family="none" font-weight="none" font-size="none" text-anchor="none"
        style="mix-blend-mode: normal">
        <g
            data-paper-data="{&quot;isGlobalGroup&quot;:true,&quot;bounds&quot;:{&quot;x&quot;:70.23071007233699,&quot;y&quot;:185.4030112527269,&quot;width&quot;:409.5385798553261,&quot;height&quot;:99.19397749454612}}">
            <g data-paper-data="{&quot;isPrimaryText&quot;:true}" fill-rule="nonzero">
                <path
                    d="M281.42059,274.36815h-16.64126v-33.98263h-31.18216v33.98263h-16.69511v-78.7363h16.69511v30.85903h31.18216v-30.85903h16.64126z"
                    data-paper-data="{&quot;glyphName&quot;:&quot;H&quot;,&quot;glyphIndex&quot;:0,&quot;firstGlyphOfWord&quot;:true,&quot;word&quot;:1}"
                    style="fill: #3A173C;"></path>
                <path
                    d="M346.63923,274.36815h-45.34608v-78.7363h45.34608v13.67922h-28.65097v17.28752h26.65832v13.67922h-26.65832v20.30341h28.65097z"
                    data-paper-data="{&quot;glyphName&quot;:&quot;E&quot;,&quot;glyphIndex&quot;:1,&quot;word&quot;:1}"
                    style="fill: #3A173C;"></path>
                <path d="M363.06507,274.36815v-78.7363h16.69511v64.94937h31.93613v13.78693z"
                    data-paper-data="{&quot;glyphName&quot;:&quot;L&quot;,&quot;glyphIndex&quot;:2,&quot;word&quot;:1}"
                    style="fill: #3A173C;"></path>
                <path
                    d="M442.07065,232.68423h5.49323c5.1342,0 8.97587,-1.01427 11.52501,-3.04282c2.54915,-2.02855 3.82372,-4.98161 3.82372,-8.85918c0,-3.91348 -1.06813,-6.80371 -3.20438,-8.67069c-2.13626,-1.86698 -5.48425,-2.80047 -10.04399,-2.80047h-7.59358zM479.76929,220.18982c0,8.47322 -2.64788,14.95379 -7.94364,19.44173c-5.29576,4.48793 -12.82651,6.7319 -22.59226,6.7319h-7.16274v28.0047h-16.69511v-78.7363h25.15038c9.55032,0 16.8118,2.05547 21.78443,6.16642c4.97263,4.11095 7.45895,10.24146 7.45895,18.39155z"
                    data-paper-data="{&quot;glyphName&quot;:&quot;P&quot;,&quot;glyphIndex&quot;:3,&quot;lastGlyphOfWord&quot;:true,&quot;word&quot;:1}"
                    style="fill: #3A173C;"></path>
            </g>
            <g
                data-paper-data="{&quot;isIcon&quot;:&quot;true&quot;,&quot;iconType&quot;:&quot;icon&quot;,&quot;rawIconId&quot;:&quot;34483&quot;,&quot;source&quot;:&quot;noun&quot;,&quot;selectedEffects&quot;:{&quot;container&quot;:&quot;&quot;,&quot;transformation&quot;:&quot;&quot;,&quot;pattern&quot;:&quot;&quot;},&quot;isDetailed&quot;:false,&quot;iconStyle&quot;:&quot;standalone&quot;,&quot;bounds&quot;:{&quot;x&quot;:70.23071007233699,&quot;y&quot;:185.4030112527269,&quot;width&quot;:99.72974072348151,&quot;height&quot;:99.19397749454612},&quot;fillRule&quot;:&quot;evenodd&quot;,&quot;suitableAsStandaloneIcon&quot;:true}"
                fill-rule="evenodd">
                <path
                    d="M110.7091,191.07018c-0.22571,-2.89094 1.93116,-5.41696 4.8337,-5.6511c2.89094,-0.22465 5.41696,1.93116 5.65004,4.8337c0.22571,2.89094 -1.93116,5.41696 -4.82315,5.6532c-0.53685,0.0327 -1.05681,-0.00633 -1.55147,-0.11602c-2.20327,-0.48727 -3.91822,-2.3562 -4.10912,-4.71979zM129.31722,197.00394c-2.81606,-0.70771 -4.51729,-3.56806 -3.80853,-6.382c0.70771,-2.81395 3.57017,-4.52573 6.38095,-3.80748l0.01055,0.00211c2.81289,0.71825 4.51413,3.57966 3.79693,6.39044c-0.69716,2.76226 -3.46786,4.45084 -6.22697,3.84123c-0.05274,-0.0116 -0.10125,-0.0327 -0.15293,-0.0443zM96.85768,196.27303c-1.15068,-2.66207 0.08227,-5.74918 2.74434,-6.90092c2.66312,-1.15068 5.76184,0.07383 6.91147,2.7475c1.15068,2.66207 -0.08332,5.75868 -2.74645,6.91147c-1.05892,0.44614 -2.17163,0.53579 -3.21051,0.30587c-1.59682,-0.35227 -3.00907,-1.44178 -3.69884,-3.06391zM141.25435,202.17831c-2.43953,-1.56518 -3.14618,-4.82105 -1.58205,-7.26268c1.57572,-2.43847 4.82105,-3.14723 7.27112,-1.5694c2.43953,1.56518 3.14618,4.82105 1.57045,7.26057c-1.21818,1.90057 -3.46892,2.75383 -5.54985,2.29504c-0.59907,-0.13184 -1.17388,-0.36704 -1.70967,-0.72352zM85.42365,205.69469c-1.94276,-2.15792 -1.79194,-5.48234 0.35438,-7.42827c2.15054,-1.95542 5.47285,-1.79405 7.42827,0.35438c1.95542,2.14948 1.79405,5.47285 -0.35333,7.41772c-1.31205,1.2013 -3.06496,1.60315 -4.67128,1.24877c-1.02833,-0.22782 -1.99023,-0.76466 -2.75805,-1.5926zM116.93711,200.94325c-0.0675,2.02925 1.52932,3.72627 3.55751,3.79376c0.15926,0.00633 0.30798,0.00422 0.46407,-0.0116c1.8162,-0.1677 3.26747,-1.66643 3.32864,-3.54697c0.0675,-2.02925 -1.51772,-3.72627 -3.54697,-3.79482c-2.03874,-0.06539 -3.73576,1.53037 -3.80326,3.55962zM109.07431,198.82752c-1.94909,0.57165 -3.08606,2.60301 -2.52601,4.55315c0.49887,1.73288 2.1537,2.80973 3.87603,2.65258c0.22043,-0.02004 0.45036,-0.06223 0.67712,-0.12656c1.95015,-0.55899 3.08711,-2.60195 2.52601,-4.5521c-0.56005,-1.95015 -2.60195,-3.08711 -4.55315,-2.52707zM127.5759,201.80917c-0.68239,1.9164 0.31746,4.01631 2.23175,4.6987c0.51575,0.18563 1.04943,0.24258 1.56518,0.19617c1.38588,-0.12762 2.63781,-1.03677 3.13458,-2.42793c0.68239,-1.9164 -0.31641,-4.01736 -2.23175,-4.6987c-1.91534,-0.68239 -4.02686,0.31641 -4.69975,2.23175zM150.88484,210.90492c-1.80881,-2.27921 -1.4249,-5.58571 0.84271,-7.38608c2.27921,-1.80776 5.58465,-1.42385 7.38608,0.84271c1.80881,2.27921 1.42279,5.58571 -0.84271,7.38608c-1.29728,1.0315 -2.92258,1.34158 -4.40444,1.01463c-1.14435,-0.25313 -2.20433,-0.8754 -2.98164,-1.85733zM98.41864,203.78779c-1.68541,1.13064 -2.13155,3.42673 -1.00091,5.1132c0.78365,1.15701 2.0957,1.72444 3.39825,1.6042c0.58958,-0.05379 1.17388,-0.25629 1.71284,-0.61278c1.68541,-1.12853 2.13261,-3.41513 0.99248,-5.10054c-1.12959,-1.68647 -3.41513,-2.13366 -5.10265,-1.00408zM137.44687,205.84973c-1.22767,1.61686 -0.9197,3.92877 0.6961,5.1575c0.76361,0.58642 1.68647,0.81845 2.5682,0.73829c0.98615,-0.0907 1.9396,-0.57903 2.59035,-1.4344c1.22873,-1.61686 0.92181,-3.92982 -0.6961,-5.15855c-1.61686,-1.22767 -3.92982,-0.92075 -5.15855,0.69716zM114.81927,207.63429c-1.6601,0.27739 -2.78336,1.8394 -2.51652,3.49634c0.19195,1.16228 1.02411,2.06089 2.07671,2.4121c0.44508,0.14449 0.92497,0.18141 1.41963,0.10547l-0.00949,-0.00317c1.67065,-0.27317 2.79391,-1.83624 2.51652,-3.49634c-0.26789,-1.65799 -1.82991,-2.78125 -3.48685,-2.51441zM126.27546,208.1743c-1.62951,-0.41872 -3.28856,0.55266 -3.71677,2.17901c-0.40923,1.56729 0.48517,3.17149 2.01343,3.66509c0.04852,0.01582 0.10653,0.03481 0.1677,0.04324c1.6253,0.42715 3.28645,-0.54423 3.71255,-2.17058c0.41977,-1.62951 -0.55161,-3.28962 -2.17691,-3.71677zM77.74858,218.34374c-2.55871,-1.37533 -3.50689,-4.56581 -2.12101,-7.12135c1.38483,-2.5566 4.57635,-3.50478 7.12135,-2.12206c2.5566,1.38588 3.50478,4.57635 2.12101,7.12241c-1.14646,2.11257 -3.52165,3.13247 -5.75657,2.63887c-0.46302,-0.10231 -0.92392,-0.27 -1.36479,-0.51786zM89.80384,211.81408c-1.23928,1.60737 -0.9524,3.92138 0.65603,5.17226c0.76466,0.59591 1.69702,0.83954 2.58929,0.75728c0.97771,-0.08965 1.91851,-0.56743 2.57137,-1.41119c1.25088,-1.60842 0.95451,-3.91084 -0.64337,-5.16172c-1.60737,-1.24033 -3.92138,-0.95451 -5.17332,0.64337zM104.1151,211.82568c-1.39959,0.92814 -1.77401,2.81711 -0.84587,4.2167c0.39446,0.59801 0.96716,1.0083 1.59787,1.2108c0.85325,0.27422 1.81303,0.17825 2.61883,-0.36387c1.39959,-0.92814 1.7835,-2.81395 0.84587,-4.21775c-0.92708,-1.39854 -2.81711,-1.77296 -4.2167,-0.84587zM145.6187,212.71374c-1.6717,1.17072 -2.0862,3.45415 -0.91654,5.12585c0.78154,1.12431 2.08093,1.67276 3.3529,1.55568c0.62016,-0.0559 1.22556,-0.26051 1.77401,-0.6381c1.66221,-1.15912 2.07566,-3.4531 0.90493,-5.12585c-1.15806,-1.66221 -3.4531,-2.07566 -5.11531,-0.91759zM132.25773,213.79059c-1.03572,1.3226 -0.81739,3.23161 0.50204,4.27682c0.28688,0.23204 0.61911,0.40184 0.94818,0.50837c1.18127,0.38075 2.51441,0.02004 3.32653,-1.00197c1.03466,-1.32154 0.81634,-3.23161 -0.50415,-4.27682c-1.30889,-1.04205 -3.2295,-0.82689 -4.2726,0.4936zM157.18036,222.25458c-0.97349,-2.73063 0.45774,-5.74286 3.18942,-6.71635c2.73168,-0.97349 5.7418,0.4588 6.71635,3.18942c0.97454,2.73168 -0.4588,5.7418 -3.18942,6.71635c-0.96084,0.33856 -1.96491,0.38708 -2.89094,0.18141c-1.71073,-0.37653 -3.18942,-1.59998 -3.82541,-3.37083zM96.09725,220.0492c-0.8965,1.42174 -0.46618,3.30228 0.95556,4.19877c0.2236,0.13606 0.45669,0.24363 0.68767,0.31852c1.28779,0.41555 2.75067,-0.07488 3.50056,-1.27724l0.01055,0.00317c0.88912,-1.43334 0.46618,-3.30228 -0.95556,-4.19877c-1.43018,-0.89966 -3.30228,-0.46618 -4.19877,0.95556zM84.15379,222.14173c-0.68134,1.91534 0.31852,4.02686 2.23386,4.70819c0.5147,0.18563 1.05048,0.24258 1.57572,0.19512c1.37533,-0.12551 2.62621,-1.03572 3.12403,-2.42582c0.68134,-1.9164 -0.31641,-4.01842 -2.2328,-4.69975c-1.90585,-0.68239 -4.01842,0.31536 -4.70081,2.22226zM139.76511,220.83917c-1.48186,0.78365 -2.04613,2.63254 -1.24877,4.10807c0.38391,0.73302 1.02306,1.23822 1.74975,1.47236c0.75517,0.24258 1.60631,0.18668 2.36464,-0.20989c1.47658,-0.7963 2.03663,-2.6357 1.25298,-4.11756c-0.79314,-1.48608 -2.63254,-2.04613 -4.11861,-1.25298zM151.28035,221.75782c-1.93749,0.59063 -3.03016,2.65152 -2.43847,4.58796c0.51575,1.70018 2.14843,2.74645 3.84967,2.5914c0.25102,-0.02426 0.49044,-0.0675 0.73935,-0.14344c1.94487,-0.59063 3.0386,-2.65152 2.44797,-4.58796c-0.59274,-1.94698 -2.65152,-3.03965 -4.5985,-2.44797zM70.29921,226.78769c0.4704,-2.86668 3.17888,-4.80734 6.0445,-4.33694c2.85613,0.46829 4.7989,3.16622 4.33799,6.03606c-0.47145,2.86668 -3.17888,4.80628 -6.04556,4.33588c-0.09492,-0.01055 -0.18774,-0.03059 -0.28055,-0.05168c-2.70742,-0.59907 -4.50464,-3.22106 -4.05639,-5.98333zM95.61208,228.25162c-1.66749,-0.22782 -3.19786,0.93552 -3.42568,2.60406c-0.21094,1.48291 0.68978,2.86457 2.06511,3.30755c0.17403,0.0559 0.35544,0.09281 0.52946,0.11602c1.66854,0.22887 3.19892,-0.93447 3.42673,-2.60406c0.22465,-1.6601 -0.93552,-3.19892 -2.59563,-3.42357zM159.45324,235.00488c-0.02848,-2.90149 2.3098,-5.27879 5.20918,-5.29777c2.90043,-0.02848 5.27879,2.31085 5.29777,5.21023c0.02848,2.90043 -2.31085,5.27879 -5.21234,5.30726c-0.39973,-0.00106 -0.79946,-0.04535 -1.18127,-0.12973c-2.33722,-0.51786 -4.09435,-2.5914 -4.11334,-5.09zM82.00958,233.72447c-0.04641,2.02608 1.55991,3.72205 3.59654,3.75791c0.13922,0.00738 0.28583,0.00528 0.42399,-0.00844c1.83729,-0.16875 3.297,-1.68858 3.33602,-3.57861c0.04535,-2.03663 -1.56096,-3.72205 -3.58599,-3.75896c-2.0398,-0.0559 -3.7231,1.56096 -3.77056,3.5881zM143.81411,230.29985c-1.67592,0.12234 -2.93524,1.57678 -2.81289,3.25165c0.10336,1.27303 0.96505,2.3098 2.10729,2.67895c0.3586,0.11496 0.74884,0.16559 1.15384,0.13606c1.67803,-0.13184 2.93734,-1.58627 2.80446,-3.2643c-0.12129,-1.67487 -1.57572,-2.93524 -3.25271,-2.80235zM150.13494,235.69677c-0.04535,2.03663 1.57045,3.71888 3.59759,3.7674c0.1466,-0.00317 0.28477,-0.00422 0.42188,-0.01687c1.83729,-0.1698 3.297,-1.70123 3.34552,-3.59126l-0.01055,0.00106c0.04641,-2.02714 -1.55885,-3.71361 -3.59654,-3.75791c-2.02503,-0.03586 -3.70939,1.5694 -3.75791,3.59759zM70.40152,243.24844c-0.50204,-2.86457 1.40592,-5.58676 4.27154,-6.08669c2.85508,-0.50415 5.57621,1.40381 6.08036,4.25889c0.5147,2.85719 -1.39537,5.58993 -4.261,6.08985c-0.69821,0.12656 -1.38377,0.10442 -2.04296,-0.04113c-2.01976,-0.44508 -3.66087,-2.06089 -4.04795,-4.22092zM95.09949,238.53181c-1.6137,0.46091 -2.55238,2.14632 -2.08937,3.76002c0.29321,1.01463 1.07052,1.75608 1.99972,2.05772c0.55161,0.17719 1.16334,0.2025 1.76663,0.0232c1.6137,-0.46302 2.55133,-2.14843 2.08937,-3.76107c-0.46407,-1.61581 -2.15265,-2.545 -3.76634,-2.07987zM139.79885,242.4205c-0.56005,1.57362 0.25524,3.32231 1.83729,3.88553c0.03375,0.02109 0.06328,0.0327 0.10336,0.04324c1.54936,0.49993 3.23794,-0.32485 3.79165,-1.87842l-0.00317,0.01055c0.57376,-1.57994 -0.25207,-3.33181 -1.83413,-3.89396c-1.57783,-0.57376 -3.31809,0.24469 -3.88236,1.82569zM86.05858,240.79625c-1.93643,0.59169 -3.04071,2.64309 -2.44797,4.59007c0.51575,1.70018 2.14843,2.74539 3.84861,2.5914c0.25313,-0.02426 0.50309,-0.06855 0.73935,-0.14344c1.94698,-0.59063 3.04071,-2.64203 2.44797,-4.58901c-0.59169,-1.94593 -2.63992,-3.04071 -4.58796,-2.44902zM148.39996,245.06885c-0.68239,1.9164 0.31746,4.01736 2.2328,4.6987c0.51575,0.18668 1.05048,0.25418 1.56413,0.20778c1.38694,-0.12867 2.63887,-1.03783 3.13563,-2.42898c0.01687,-0.03375 0.02531,-0.06539 0.03375,-0.09914l-0.00106,-0.01055c0.68134,-1.91534 -0.31536,-4.01631 -2.2423,-4.69764c-1.91429,-0.67184 -4.01736,0.3259 -4.6871,2.2423c-0.00949,0.03059 -0.01582,0.0559 -0.03586,0.08754zM160.59971,254.60337c-2.74117,-0.94185 -4.20616,-3.94248 -3.26536,-6.6847l0.01055,0.00317c0.00949,-0.04113 0.01898,-0.08227 0.04008,-0.13079c0.92919,-2.74434 3.91295,-4.22408 6.65728,-3.29489c2.75488,0.92286 4.23569,3.90662 3.30333,6.66045c-0.00949,0.04113 -0.02637,0.06855 -0.0327,0.09914c-0.01793,0.02953 -0.0232,0.06223 -0.02742,0.08121c-0.88068,2.56082 -3.53009,3.99521 -6.10356,3.42568c-0.19512,-0.04324 -0.39129,-0.09598 -0.5822,-0.15926zM98.7783,248.14015c-1.28779,1.08107 -1.46604,2.99008 -0.38497,4.27893c0.38497,0.46618 0.87329,0.77415 1.39643,0.94185c0.96822,0.31219 2.05983,0.14133 2.88356,-0.55688c1.29412,-1.06841 1.46604,-2.99114 0.38497,-4.27893c-1.06841,-1.29623 -2.99114,-1.46604 -4.27999,-0.38497zM134.99679,250.05549c-1.14541,1.20236 -1.12115,3.11243 0.07383,4.27787c0.35122,0.33751 0.75622,0.57481 1.19182,0.71509c1.06525,0.34383 2.27921,0.09387 3.10821,-0.76044c0.03059,-0.0232 0.05168,-0.05906 0.08016,-0.08227c1.14857,-1.20025 1.12431,-3.12192 -0.08016,-4.28948c-1.20552,-1.16967 -3.1293,-1.13803 -4.29791,0.0675c-0.02953,0.02215 -0.04746,0.04957 -0.07594,0.07172zM89.65934,250.83597c-1.6717,1.15912 -2.08515,3.45204 -0.92603,5.12691c0.79208,1.1222 2.09359,1.68225 3.36345,1.56518c0.62016,-0.0559 1.22556,-0.27211 1.76241,-0.64864c1.67276,-1.15912 2.07671,-3.45415 0.91759,-5.11531c-1.16017,-1.67381 -3.45415,-2.08831 -5.11742,-0.92814zM75.89125,258.73991c-1.40486,-2.54394 -0.482,-5.74391 2.05351,-7.14878c2.5355,-1.40592 5.73442,-0.48306 7.13823,2.06089c1.40592,2.53656 0.4936,5.73653 -2.05245,7.14139c-1.16861,0.64864 -2.46695,0.80579 -3.67247,0.54001c-1.42174,-0.31536 -2.71269,-1.21502 -3.46681,-2.59352zM143.86579,253.34405c-1.25088,1.59893 -0.96505,3.91084 0.63177,5.16277c0.77626,0.59801 1.69913,0.84165 2.60301,0.75939c0.9756,-0.0907 1.91745,-0.56848 2.56082,-1.4017c1.24877,-1.60948 0.96505,-3.91084 -0.63282,-5.16383c-1.60948,-1.25193 -3.92455,-0.964 -5.16277,0.64337zM106.00723,255.46295c-0.75095,1.49873 -0.14449,3.3297 1.35635,4.0817c0.14871,0.06855 0.29215,0.12551 0.43559,0.17191c1.40381,0.45352 2.9616,-0.16664 3.64611,-1.52826c0.75095,-1.50189 0.14449,-3.33181 -1.35635,-4.08276c-1.49979,-0.74989 -3.32759,-0.15399 -4.0817,1.3574zM127.58223,254.95564c-1.56518,0.60751 -2.34566,2.3657 -1.72866,3.93193c0.34278,0.89122 1.05681,1.52721 1.90057,1.80038c0.63915,0.20461 1.3574,0.20145 2.0303,-0.06223c1.56307,-0.60751 2.34672,-2.37625 1.73921,-3.94037c-0.60857,-1.56413 -2.37941,-2.33828 -3.94142,-1.72971zM118.75437,256.37527c-1.68436,-0.08438 -3.1061,1.2108 -3.18942,2.8941c-0.06644,1.40064 0.83111,2.63043 2.10835,3.04282c0.24258,0.07805 0.50415,0.12867 0.77731,0.14449c1.6833,0.08227 3.1061,-1.21186 3.18731,-2.89516c0.0907,-1.67276 -1.20025,-3.10399 -2.88356,-3.18626zM152.03657,266.6776c-2.28132,-1.80038 -2.67578,-5.10582 -0.8849,-7.3903c1.79721,-2.26972 5.10265,-2.66207 7.38608,-0.87329c2.28132,1.79827 2.66418,5.10371 0.8754,7.38608c-1.29096,1.63901 -3.36134,2.30558 -5.26297,1.8721c-0.752,-0.16453 -1.4808,-0.48727 -2.11362,-0.99458zM96.16791,259.29258c-1.23822,1.62002 -0.92075,3.92982 0.6961,5.15855c0.76255,0.58642 1.67487,0.82056 2.5682,0.73829c0.9872,-0.0907 1.93854,-0.57798 2.59035,-1.4344c1.22873,-1.61792 0.92075,-3.91822 -0.6961,-5.15855c-1.61686,-1.22767 -3.92982,-0.9197 -5.15855,0.6961zM136.94588,259.76297c-1.68647,1.12853 -2.14421,3.41724 -1.00302,5.11215c0.77415,1.15806 2.09675,1.72444 3.38876,1.60526c0.59696,-0.05485 1.18549,-0.24574 1.71284,-0.60223c1.68541,-1.12748 2.13155,-3.41513 1.00302,-5.10265c-1.12853,-1.68647 -3.41724,-2.1421 -5.1016,-1.01252zM86.07335,271.61889c-2.15054,-1.95542 -2.30347,-5.27246 -0.34911,-7.423c1.94487,-2.15159 5.27457,-2.31296 7.42511,-0.3586c2.13894,1.95331 2.30031,5.28301 0.34594,7.43144c-1.31205,1.43967 -3.24638,1.98495 -5.02882,1.59049c-0.8638,-0.19195 -1.69175,-0.60118 -2.39312,-1.24033zM104.95358,265.35079c-0.68239,1.90585 0.31536,4.00576 2.2328,4.69764c0.52419,0.18352 1.04837,0.24258 1.56413,0.19723c1.38588,-0.12762 2.63781,-1.03783 3.13458,-2.42898c0.68134,-1.91534 -0.31746,-4.01736 -2.2328,-4.6987c-1.9069,-0.69399 -4.01631,0.31641 -4.6987,2.2328zM128.3606,263.74026c-1.95964,0.56216 -3.08606,2.5914 -2.52496,4.55315c0.48622,1.72338 2.14316,2.81184 3.86654,2.65363c0.22993,-0.02109 0.4493,-0.06223 0.67712,-0.12656c1.95015,-0.56005 3.08606,-2.59246 2.52707,-4.54366c-0.55161,-1.96069 -2.59246,-3.08606 -4.54577,-2.53656zM115.16205,268.4474c-0.06855,2.02819 1.51877,3.73681 3.55857,3.80326c0.14871,0.00738 0.30798,0.00422 0.46407,-0.00949c1.81726,-0.16664 3.26747,-1.66643 3.32864,-3.54697c0.0791,-2.03136 -1.51772,-3.72838 -3.54697,-3.79482c-2.02925,-0.06855 -3.73787,1.51772 -3.80432,3.54802zM139.956,275.25445c-1.56307,-2.45113 -0.84798,-5.6954 1.59471,-7.26268c2.44058,-1.56729 5.6975,-0.85958 7.26268,1.5926c1.56624,2.44058 0.84798,5.69645 -1.5926,7.26374l0.00211,-0.0116c-1.2224,0.78997 -2.65152,1.00302 -3.9699,0.71298c-1.30889,-0.29004 -2.50703,-1.07369 -3.297,-2.29504zM99.86464,280.52796l-0.00211,0.01055c-2.65996,-1.16017 -3.87709,-4.25889 -2.71797,-6.9178c1.15173,-2.67367 4.25151,-3.8908 6.91147,-2.73063c2.67051,1.16334 3.87603,4.25784 2.72746,6.92096c-1.02622,2.34461 -3.54274,3.57017 -5.9538,3.03754c-0.31852,-0.07066 -0.65181,-0.17403 -0.96505,-0.32063zM125.77447,279.46588c-0.69505,-2.82028 1.02622,-5.67008 3.84544,-6.35458c2.82028,-0.69399 5.66059,1.02411 6.35353,3.84544c0.69505,2.82239 -1.02622,5.67114 -3.84439,6.35458l-0.00317,0.0116c-0.81107,0.19828 -1.61897,0.19301 -2.38257,0.02426c-1.89319,-0.41977 -3.48263,-1.8721 -3.96884,-3.88131zM110.97383,278.8879c0.24996,-2.89516 2.80762,-5.03093 5.69961,-4.77886c2.88356,0.24785 5.03199,2.79496 4.77147,5.68801c-0.24996,2.89305 -2.79602,5.03093 -5.69012,4.77991c-0.23415,-0.01793 -0.46196,-0.05906 -0.68872,-0.10864c-2.53234,-0.55899 -4.32323,-2.92153 -4.09225,-5.58043z"
                    data-paper-data="{&quot;isPathIcon&quot;:true}"
                    style="fill: #3A173C;"></path>
            </g>
        </g>
    </g>
</svg>